<mxfile host="app.diagrams.net" modified="2023-12-20T09:24:34.125Z" agent="Mozilla/5.0 (Windows NT 10.0; Win64; x64) AppleWebKit/537.36 (KHTML, like Gecko) Chrome/120.0.0.0 Safari/537.36" etag="RI-MMCJ0V4eZInD7lM3O" version="22.1.11" type="github">
  <diagram name="Page-1" id="e7e014a7-5840-1c2e-5031-d8a46d1fe8dd">
    <mxGraphModel dx="1434" dy="772" grid="1" gridSize="10" guides="1" tooltips="1" connect="1" arrows="1" fold="1" page="1" pageScale="1" pageWidth="1169" pageHeight="826" background="none" math="0" shadow="0">
      <root>
        <mxCell id="0" />
        <mxCell id="1" parent="0" />
        <mxCell id="9jWqx3XjFgaxQEPSi8uf-41" value="" style="ellipse;shape=startState;fillColor=#000000;strokeColor=#ff0000;" vertex="1" parent="1">
          <mxGeometry x="355" y="40" width="30" height="30" as="geometry" />
        </mxCell>
        <mxCell id="9jWqx3XjFgaxQEPSi8uf-42" value="Create SQS Queue" style="ellipse;whiteSpace=wrap;html=1;" vertex="1" parent="1">
          <mxGeometry x="310" y="120" width="120" height="80" as="geometry" />
        </mxCell>
        <mxCell id="9jWqx3XjFgaxQEPSi8uf-43" value="Configuring Queue" style="ellipse;whiteSpace=wrap;html=1;" vertex="1" parent="1">
          <mxGeometry x="310" y="250" width="120" height="80" as="geometry" />
        </mxCell>
        <mxCell id="9jWqx3XjFgaxQEPSi8uf-44" value="Send Messages" style="ellipse;whiteSpace=wrap;html=1;" vertex="1" parent="1">
          <mxGeometry x="310" y="380" width="120" height="80" as="geometry" />
        </mxCell>
        <mxCell id="9jWqx3XjFgaxQEPSi8uf-45" value="Configuring Consumer" style="ellipse;whiteSpace=wrap;html=1;" vertex="1" parent="1">
          <mxGeometry x="310" y="500" width="120" height="80" as="geometry" />
        </mxCell>
        <mxCell id="9jWqx3XjFgaxQEPSi8uf-46" value="Receive Messages" style="ellipse;whiteSpace=wrap;html=1;" vertex="1" parent="1">
          <mxGeometry x="310" y="620" width="120" height="80" as="geometry" />
        </mxCell>
        <mxCell id="9jWqx3XjFgaxQEPSi8uf-48" value="Process Messages" style="ellipse;whiteSpace=wrap;html=1;" vertex="1" parent="1">
          <mxGeometry x="230" y="910" width="120" height="80" as="geometry" />
        </mxCell>
        <mxCell id="9jWqx3XjFgaxQEPSi8uf-49" value="Visibility Timeout" style="ellipse;whiteSpace=wrap;html=1;" vertex="1" parent="1">
          <mxGeometry x="385" y="910" width="120" height="80" as="geometry" />
        </mxCell>
        <mxCell id="9jWqx3XjFgaxQEPSi8uf-50" value="Scale as Needed" style="ellipse;whiteSpace=wrap;html=1;" vertex="1" parent="1">
          <mxGeometry x="230" y="1050" width="120" height="80" as="geometry" />
        </mxCell>
        <mxCell id="9jWqx3XjFgaxQEPSi8uf-51" value="" style="rhombus;whiteSpace=wrap;html=1;" vertex="1" parent="1">
          <mxGeometry x="330" y="750" width="80" height="80" as="geometry" />
        </mxCell>
        <mxCell id="9jWqx3XjFgaxQEPSi8uf-53" value="" style="endArrow=classic;html=1;rounded=0;exitX=0.5;exitY=1;exitDx=0;exitDy=0;entryX=0.5;entryY=0;entryDx=0;entryDy=0;" edge="1" parent="1" source="9jWqx3XjFgaxQEPSi8uf-45" target="9jWqx3XjFgaxQEPSi8uf-46">
          <mxGeometry width="50" height="50" relative="1" as="geometry">
            <mxPoint x="625.5" y="890" as="sourcePoint" />
            <mxPoint x="675.5" y="840" as="targetPoint" />
          </mxGeometry>
        </mxCell>
        <mxCell id="9jWqx3XjFgaxQEPSi8uf-54" value="" style="endArrow=classic;html=1;rounded=0;exitX=0.5;exitY=1;exitDx=0;exitDy=0;entryX=0.5;entryY=0;entryDx=0;entryDy=0;" edge="1" parent="1" source="9jWqx3XjFgaxQEPSi8uf-46" target="9jWqx3XjFgaxQEPSi8uf-51">
          <mxGeometry width="50" height="50" relative="1" as="geometry">
            <mxPoint x="625.5" y="890" as="sourcePoint" />
            <mxPoint x="675.5" y="840" as="targetPoint" />
          </mxGeometry>
        </mxCell>
        <mxCell id="9jWqx3XjFgaxQEPSi8uf-55" value="" style="endArrow=classic;html=1;rounded=0;exitX=0.5;exitY=1;exitDx=0;exitDy=0;entryX=0.5;entryY=0;entryDx=0;entryDy=0;" edge="1" parent="1" source="9jWqx3XjFgaxQEPSi8uf-51" target="9jWqx3XjFgaxQEPSi8uf-48">
          <mxGeometry width="50" height="50" relative="1" as="geometry">
            <mxPoint x="625.5" y="890" as="sourcePoint" />
            <mxPoint x="675.5" y="840" as="targetPoint" />
          </mxGeometry>
        </mxCell>
        <mxCell id="9jWqx3XjFgaxQEPSi8uf-56" value="" style="endArrow=classic;html=1;rounded=0;exitX=0.5;exitY=1;exitDx=0;exitDy=0;entryX=0.5;entryY=0;entryDx=0;entryDy=0;" edge="1" parent="1" source="9jWqx3XjFgaxQEPSi8uf-51" target="9jWqx3XjFgaxQEPSi8uf-49">
          <mxGeometry width="50" height="50" relative="1" as="geometry">
            <mxPoint x="625.5" y="890" as="sourcePoint" />
            <mxPoint x="675.5" y="840" as="targetPoint" />
          </mxGeometry>
        </mxCell>
        <mxCell id="9jWqx3XjFgaxQEPSi8uf-57" value="" style="endArrow=classic;html=1;rounded=0;exitX=0.5;exitY=1;exitDx=0;exitDy=0;entryX=0.5;entryY=0;entryDx=0;entryDy=0;" edge="1" parent="1" source="9jWqx3XjFgaxQEPSi8uf-48" target="9jWqx3XjFgaxQEPSi8uf-50">
          <mxGeometry width="50" height="50" relative="1" as="geometry">
            <mxPoint x="625.5" y="890" as="sourcePoint" />
            <mxPoint x="675.5" y="840" as="targetPoint" />
          </mxGeometry>
        </mxCell>
        <mxCell id="9jWqx3XjFgaxQEPSi8uf-58" value="" style="ellipse;shape=endState;fillColor=#000000;strokeColor=#ff0000" vertex="1" parent="1">
          <mxGeometry x="275" y="1180" width="30" height="30" as="geometry" />
        </mxCell>
        <mxCell id="9jWqx3XjFgaxQEPSi8uf-59" value="" style="endArrow=classic;html=1;rounded=0;exitX=0.5;exitY=1;exitDx=0;exitDy=0;entryX=0.5;entryY=0;entryDx=0;entryDy=0;" edge="1" parent="1" source="9jWqx3XjFgaxQEPSi8uf-50" target="9jWqx3XjFgaxQEPSi8uf-58">
          <mxGeometry width="50" height="50" relative="1" as="geometry">
            <mxPoint x="625.5" y="1020" as="sourcePoint" />
            <mxPoint x="675.5" y="970" as="targetPoint" />
          </mxGeometry>
        </mxCell>
        <mxCell id="9jWqx3XjFgaxQEPSi8uf-60" value="" style="endArrow=classic;html=1;rounded=0;exitX=0.5;exitY=1;exitDx=0;exitDy=0;entryX=0.5;entryY=0;entryDx=0;entryDy=0;" edge="1" parent="1" source="9jWqx3XjFgaxQEPSi8uf-41" target="9jWqx3XjFgaxQEPSi8uf-42">
          <mxGeometry width="50" height="50" relative="1" as="geometry">
            <mxPoint x="625.5" y="420" as="sourcePoint" />
            <mxPoint x="675.5" y="370" as="targetPoint" />
          </mxGeometry>
        </mxCell>
        <mxCell id="9jWqx3XjFgaxQEPSi8uf-61" value="" style="endArrow=classic;html=1;rounded=0;exitX=0.5;exitY=1;exitDx=0;exitDy=0;" edge="1" parent="1" source="9jWqx3XjFgaxQEPSi8uf-42" target="9jWqx3XjFgaxQEPSi8uf-43">
          <mxGeometry width="50" height="50" relative="1" as="geometry">
            <mxPoint x="625.5" y="420" as="sourcePoint" />
            <mxPoint x="675.5" y="370" as="targetPoint" />
          </mxGeometry>
        </mxCell>
        <mxCell id="9jWqx3XjFgaxQEPSi8uf-62" value="" style="endArrow=classic;html=1;rounded=0;exitX=0.5;exitY=1;exitDx=0;exitDy=0;" edge="1" parent="1" source="9jWqx3XjFgaxQEPSi8uf-43" target="9jWqx3XjFgaxQEPSi8uf-44">
          <mxGeometry width="50" height="50" relative="1" as="geometry">
            <mxPoint x="625.5" y="420" as="sourcePoint" />
            <mxPoint x="675.5" y="370" as="targetPoint" />
          </mxGeometry>
        </mxCell>
        <mxCell id="9jWqx3XjFgaxQEPSi8uf-63" value="" style="endArrow=classic;html=1;rounded=0;exitX=0.5;exitY=1;exitDx=0;exitDy=0;entryX=0.5;entryY=0;entryDx=0;entryDy=0;" edge="1" parent="1" source="9jWqx3XjFgaxQEPSi8uf-44" target="9jWqx3XjFgaxQEPSi8uf-45">
          <mxGeometry width="50" height="50" relative="1" as="geometry">
            <mxPoint x="625.5" y="420" as="sourcePoint" />
            <mxPoint x="675.5" y="370" as="targetPoint" />
          </mxGeometry>
        </mxCell>
      </root>
    </mxGraphModel>
  </diagram>
</mxfile>
